<svg xmlns="http://www.w3.org/2000/svg" viewBox="0 0 160 120" role="img" aria-labelledby="title desc">
  <title id="title">Notion Wavelet</title>
  <desc id="desc">Tres curvas azules gruesas formando una onda</desc>
  <defs>
    <linearGradient id="waveBlue" x1="20" y1="92" x2="138" y2="20" gradientUnits="userSpaceOnUse">
      <stop offset="0" stop-color="#0866e9"/>
      <stop offset="1" stop-color="#20a4ff"/>
    </linearGradient>
  </defs>
  <path d="M18 68 C43 65 56 70 69 84 C79 95 90 98 100 89 C113 77 111 44 127 25" fill="none" stroke="url(#waveBlue)" stroke-width="9" stroke-linecap="round" stroke-linejoin="round"/>
  <path d="M21 82 C42 78 55 83 67 94 C77 103 88 104 98 95 C113 82 113 47 136 24" fill="none" stroke="url(#waveBlue)" stroke-width="8" stroke-linecap="round" stroke-linejoin="round" opacity=".9"/>
  <path d="M28 58 C47 57 57 62 68 73 C76 81 84 84 92 78 C103 70 103 47 115 31" fill="none" stroke="url(#waveBlue)" stroke-width="7" stroke-linecap="round" stroke-linejoin="round" opacity=".72"/>
</svg>