<svg xmlns="http://www.w3.org/2000/svg" viewBox="0 0 128 128" role="img" aria-labelledby="title desc">
  <title id="title">Notion Wavelet</title>
  <desc id="desc">Símbolo azul formado por tres ondas curvas</desc>
  <rect x="4" y="4" width="120" height="120" rx="32" fill="#ffffff" stroke="#e3eaf5" stroke-width="6"/>
  <defs>
    <linearGradient id="blue" x1="18" y1="98" x2="106" y2="24" gradientUnits="userSpaceOnUse">
      <stop stop-color="#0b51c8"/>
      <stop offset="1" stop-color="#1687ff"/>
    </linearGradient>
  </defs>
  <path d="M22 77c17-7 28-3 39 8 8 8 14 12 22 10 10-3 14-15 18-34 3-15 7-25 15-32" fill="none" stroke="url(#blue)" stroke-width="10" stroke-linecap="round" stroke-linejoin="round"/>
  <path d="M24 91c14-4 23-1 32 7 7 7 14 10 21 8 12-3 18-17 22-39 3-16 7-27 15-35" fill="none" stroke="url(#blue)" stroke-width="8" stroke-linecap="round" stroke-linejoin="round" opacity=".9"/>
  <path d="M30 66c13-3 22 0 30 8 6 6 12 8 18 6 9-3 13-13 17-29" fill="none" stroke="url(#blue)" stroke-width="7" stroke-linecap="round" stroke-linejoin="round" opacity=".72"/>
</svg>
